<svg width="48" height="48" viewBox="0 0 48 48" fill="none" xmlns="http://www.w3.org/2000/svg">
<path opacity="0.35" d="M22.2 10.5L22.2 16.7C19.2 17.1 17.2 18.1 16.2 19.7C15.2 21.3667 14.7 23.7 14.7 26.7L9.8 25.7L22 25.7L22 39.1L7.4 39.1V29.1C7.4 24.3 8.6 20.2 11 16.8C13.3333 13.4 17.0667 11.3 22.2 10.5ZM41.8 10.5V16.7C38.8 17.1 36.8 18.1 35.8 19.7C34.8 21.3667 34.3 23.7 34.3 26.7L29.4 25.7L41.6 25.7V39.1L27 39.1V29.1C27 24.3 28.2 20.2 30.6 16.8C32.9333 13.4 36.6667 11.3 41.8 10.5Z" fill="#69F0FF"/>
</svg>
