<svg width="80" height="80" viewBox="0 0 80 80" fill="none" xmlns="http://www.w3.org/2000/svg">
<g clip-path="url(#clip0_765_1073)">
<path d="M44.7 62.75V53.45C49.2 52.85 52.2 51.35 53.7 48.95C55.2 46.45 55.95 42.95 55.95 38.45L63.3 39.95H45V19.85H66.9V34.85C66.9 42.05 65.1 48.2 61.5 53.3C58 58.4 52.4 61.55 44.7 62.75ZM15.3 62.75V53.45C19.8 52.85 22.8 51.35 24.3 48.95C25.8 46.45 26.55 42.95 26.55 38.45L33.9 39.95H15.6V19.85H37.5V34.85C37.5 42.05 35.7 48.2 32.1 53.3C28.6 58.4 23 61.55 15.3 62.75Z" fill="#009877"/>
</g>
<defs>
<clipPath id="clip0_765_1073">
<rect width="80" height="80" fill="white"/>
</clipPath>
</defs>
</svg>
