<svg width="48" height="48" viewBox="0 0 48 48" fill="none" xmlns="http://www.w3.org/2000/svg">
<g clip-path="url(#clip0_726_1057)">
<path opacity="0.35" d="M25.8 37.5V31.3C28.8 30.9 30.8 29.9 31.8 28.3C32.8 26.6333 33.3 24.3 33.3 21.3L38.2 22.3L26 22.3L26 8.9L40.6 8.9V18.9C40.6 23.7 39.4 27.8 37 31.2C34.6667 34.6 30.9333 36.7 25.8 37.5ZM6.2 37.5L6.2 31.3C9.2 30.9 11.2 29.9 12.2 28.3C13.2 26.6333 13.7 24.3 13.7 21.3L18.6 22.3L6.4 22.3L6.4 8.9L21 8.9V18.9C21 23.7 19.8 27.8 17.4 31.2C15.0667 34.6 11.3333 36.7 6.2 37.5Z" fill="#69F0FF"/>
</g>
<defs>
<clipPath id="clip0_726_1057">
<rect width="48" height="48" fill="white" transform="matrix(-1 0 0 -1 48 48)"/>
</clipPath>
</defs>
</svg>
