<svg preserveAspectRatio="none" width="100%" height="100%" overflow="visible" style="display: block;" viewBox="0 0 533.595 531.328" fill="none" xmlns="http://www.w3.org/2000/svg">
<path id="Star 1" d="M265.852 0.673632C266.162 -0.22454 267.433 -0.224546 267.743 0.673626L298.968 91.1088C299.221 91.8417 300.176 92.0202 300.677 91.4282L362.462 18.3798C363.076 17.6543 364.26 18.1132 364.225 19.0627L360.673 114.671C360.644 115.446 361.47 115.957 362.151 115.586L446.152 69.7899C446.987 69.3351 447.925 70.1908 447.55 71.0635L409.7 158.932C409.393 159.644 409.978 160.42 410.747 160.319L505.62 147.961C506.562 147.838 507.128 148.975 506.462 149.653L439.426 217.915C438.883 218.468 439.149 219.403 439.902 219.587L532.833 242.335C533.756 242.561 533.873 243.826 533.007 244.217L445.839 283.654C445.132 283.973 445.043 284.941 445.678 285.385L524.116 340.167C524.895 340.711 524.547 341.932 523.599 341.985L428.071 347.269C427.296 347.312 426.863 348.182 427.296 348.826L480.647 428.243C481.177 429.032 480.411 430.046 479.508 429.752L388.522 400.171C387.784 399.931 387.066 400.586 387.237 401.342L408.297 494.669C408.506 495.596 407.426 496.265 406.689 495.665L332.533 435.213C331.932 434.723 331.026 435.074 330.912 435.841L316.836 530.474C316.696 531.414 315.448 531.647 314.978 530.821L267.667 447.664C267.283 446.99 266.312 446.99 265.928 447.664L218.617 530.821C218.147 531.647 216.899 531.414 216.759 530.474L202.683 435.841C202.569 435.074 201.663 434.723 201.062 435.213L126.906 495.665C126.169 496.265 125.089 495.596 125.298 494.669L146.358 401.342C146.529 400.586 145.811 399.931 145.073 400.171L54.0872 429.752C53.1835 430.046 52.418 429.032 52.9479 428.243L106.299 348.826C106.732 348.182 106.299 347.312 105.524 347.269L9.99636 341.985C9.04761 341.932 8.69999 340.711 9.479 340.167L87.9166 285.385C88.5524 284.941 88.4628 283.973 87.7563 283.654L0.587983 244.217C-0.277744 243.826 -0.160534 242.561 0.76242 242.335L93.6929 219.587C94.4461 219.403 94.7119 218.468 94.1686 217.915L27.1327 149.653C26.4669 148.975 27.0331 147.838 27.9754 147.961L122.848 160.319C123.617 160.42 124.202 159.644 123.895 158.932L86.0455 71.0635C85.6695 70.1908 86.6083 69.3351 87.4425 69.7899L171.444 115.586C172.125 115.957 172.951 115.446 172.922 114.671L169.37 19.0627C169.334 18.1132 170.519 17.6543 171.133 18.3798L232.918 91.4282C233.419 92.0202 234.374 91.8417 234.627 91.1088L265.852 0.673632Z" fill="url(#paint0_linear_970_2459)"/>
<defs>
<linearGradient id="paint0_linear_970_2459" x1="-3.20251" y1="15.436" x2="519.298" y2="454.936" gradientUnits="userSpaceOnUse">
<stop stop-color="#8EE0CE"/>
<stop offset="1" stop-color="#E1FFF9"/>
</linearGradient>
</defs>
</svg>
