<svg width="19" height="21" viewBox="0 0 19 21" fill="none" xmlns="http://www.w3.org/2000/svg">
<path d="M9.62567 0C9.05836 0 8.51429 0.225362 8.11314 0.626509C7.71199 1.02766 7.48663 1.57173 7.48663 2.13904C7.48663 2.70635 7.71199 3.25042 8.11314 3.65157C8.51429 4.05271 9.05836 4.27808 9.62567 4.27808C10.8128 4.27808 11.7647 3.3262 11.7647 2.13904C11.7647 1.57173 11.5393 1.02766 11.1382 0.626509C10.737 0.225362 10.193 0 9.62567 0ZM0 5.34759V7.48663H6.41711V13.9037L0.994652 19.3262L2.50267 20.8556L9.68984 13.6578L13.9037 16.1818V20.3209H16.0428V15.5829C16.0428 15.1979 15.8503 14.8556 15.508 14.6631L11.7647 12.4064V7.48663H18.1818V5.34759H0Z" fill="#007B89"/>
</svg>
