<svg width="25" height="25" viewBox="0 0 25 25" fill="none" xmlns="http://www.w3.org/2000/svg">
<path d="M3.09082 18.5454H10.8181V20.0908H3.09082V18.5454ZM3.09082 13.909H10.8181V15.4545H3.09082V13.909ZM20.0908 10.8181H4.63627C4.22639 10.8181 3.8333 10.6553 3.54347 10.3654C3.25364 10.0756 3.09082 9.68252 3.09082 9.27264V4.63627C3.09082 4.22639 3.25364 3.8333 3.54347 3.54347C3.8333 3.25364 4.22639 3.09082 4.63627 3.09082H20.0908C20.5007 3.09082 20.8938 3.25364 21.1836 3.54347C21.4734 3.8333 21.6363 4.22639 21.6363 4.63627V9.27264C21.6363 9.68252 21.4734 10.0756 21.1836 10.3654C20.8938 10.6553 20.5007 10.8181 20.0908 10.8181ZM4.63627 4.63627V9.27264H20.0908V4.63627H4.63627ZM20.0908 21.6363H15.4545C15.0446 21.6363 14.6515 21.4734 14.3617 21.1836C14.0718 20.8938 13.909 20.5007 13.909 20.0908V15.4545C13.909 15.0446 14.0718 14.6515 14.3617 14.3617C14.6515 14.0718 15.0446 13.909 15.4545 13.909H20.0908C20.5007 13.909 20.8938 14.0718 21.1836 14.3617C21.4734 14.6515 21.6363 15.0446 21.6363 15.4545V20.0908C21.6363 20.5007 21.4734 20.8938 21.1836 21.1836C20.8938 21.4734 20.5007 21.6363 20.0908 21.6363ZM15.4545 15.4545V20.0908H20.0908V15.4545H15.4545Z" fill="#007B89"/>
</svg>
