<svg width="32" height="32" viewBox="0 0 28 28" fill="none" xmlns="http://www.w3.org/2000/svg">
<path d="M13.9998 2.44922C8.5825 2.44922 4.18164 6.85007 4.18164 12.2674C4.18164 17.6847 8.5825 22.0856 13.9998 22.0856H14.5774V25.5508C20.1911 22.8479 23.818 17.4653 23.818 12.2674C23.818 6.85007 19.4172 2.44922 13.9998 2.44922ZM15.1549 19.1979H12.8447V16.8877H15.1549V19.1979ZM15.1549 15.1551H12.8447C12.8447 11.4011 16.31 11.6899 16.31 9.3797C16.31 8.10911 15.2704 7.06954 13.9998 7.06954C12.7292 7.06954 11.6897 8.10911 11.6897 9.3797H9.3795C9.3795 6.82697 11.4471 4.75938 13.9998 4.75938C16.5526 4.75938 18.6201 6.82697 18.6201 9.3797C18.6201 12.2674 15.1549 12.5562 15.1549 15.1551Z" fill="#007B89"/>
</svg>
