<svg width="50" height="50" viewBox="0 0 50 50" fill="none" xmlns="http://www.w3.org/2000/svg">
<path d="M20.425 25C23.2286 25 25.5 22.7621 25.5 20C25.5 17.2379 23.2286 15 20.425 15C17.6214 15 15.35 17.2379 15.35 20C15.35 22.7621 17.6214 25 20.425 25ZM36.375 22.5C36.375 24.6707 34.5908 26.4286 32.3875 26.4286C31.3299 26.4286 30.3157 26.0147 29.5679 25.2779C28.8201 24.5412 28.4 23.5419 28.4 22.5C28.4 20.3293 30.1842 18.5714 32.3875 18.5714C34.5908 18.5714 36.375 20.3293 36.375 22.5ZM20.425 26.4286C22.4072 26.4286 25.6327 27.0364 27.7482 28.2464C28.6124 29.1129 29.125 30.0579 29.125 31V35H11V31C11 27.96 17.2792 26.4286 20.425 26.4286ZM40 35H30.575V31C30.575 29.9886 30.2045 29.0571 29.6151 28.2264C30.7323 27.9807 31.8322 27.8571 32.6724 27.8571C35.3745 27.8571 40 29.1336 40 31.6664V35Z" fill="#08A080"/>
</svg>
