<svg width="50" height="50" viewBox="0 0 50 50" fill="none" xmlns="http://www.w3.org/2000/svg">
<path d="M25.7647 10C24.9535 10 24.1754 10.3242 23.6018 10.9012C23.0282 11.4782 22.7059 12.2609 22.7059 13.0769C22.7059 13.893 23.0282 14.6756 23.6018 15.2526C24.1754 15.8297 24.9535 16.1538 25.7647 16.1538C27.4624 16.1538 28.8235 14.7846 28.8235 13.0769C28.8235 12.2609 28.5013 11.4782 27.9276 10.9012C27.354 10.3242 26.576 10 25.7647 10ZM12 17.6923V20.7692H21.1765V30L13.4224 37.8L15.5788 40L25.8565 29.6462L31.8824 33.2769V39.2308H34.9412V32.4154C34.9412 31.8615 34.6659 31.3692 34.1765 31.0923L28.8235 27.8462V20.7692H38V17.6923H12Z" fill="#009877"/>
</svg>
