<svg width="50" height="50" viewBox="0 0 50 50" fill="none" xmlns="http://www.w3.org/2000/svg">
<path d="M35.2574 14.5766C34.8508 14.4225 34.3893 14.5215 34.0816 14.8186C34.0047 14.8957 32.0378 16.7662 28.7633 15.1157C26.5107 13.9824 22.6098 13.3112 19.0056 15.1157C14.3246 17.4704 12.6653 23.3352 15.1487 28.5398C15.83 26.6252 16.8079 25.0077 18.0936 23.7203C21.1813 20.6394 24.9064 20.6394 25.0053 20.6064V20.9805C23.2243 21.4716 21.6004 22.4154 20.2913 23.7203C17.5881 26.4271 16.2146 30.5534 16.2146 36H18.4122C18.4122 34.7346 18.4892 33.6013 18.643 32.567C19.3682 33.0181 20.1704 33.3592 21.0275 33.5573C21.7527 33.7333 22.4779 33.7993 23.1922 33.7993C25.8623 33.7993 28.2908 32.743 29.4775 31.8518C31.4774 30.3443 33.1256 28.9139 34.7519 25.3708C36.2903 21.9928 35.9826 15.7979 35.9606 15.5339C35.9486 15.3232 35.8757 15.1207 35.7509 14.9507C35.626 14.7808 35.4546 14.6508 35.2574 14.5766Z" fill="#08A080"/>
</svg>
