<svg width="50" height="50" viewBox="0 0 50 50" fill="none" xmlns="http://www.w3.org/2000/svg">
<path d="M34.0513 13.0519V11.1111C34.0513 10.8164 33.9338 10.5338 33.7246 10.3254C33.5154 10.1171 33.2317 10 32.9359 10C32.6401 10 32.3564 10.1171 32.1472 10.3254C31.938 10.5338 31.8205 10.8164 31.8205 11.1111V12.963H19.1795V11.1111C19.1795 10.8164 19.062 10.5338 18.8528 10.3254C18.6436 10.1171 18.3599 10 18.0641 10C17.7683 10 17.4846 10.1171 17.2754 10.3254C17.0662 10.5338 16.9487 10.8164 16.9487 11.1111V13.0519C15.291 13.3189 13.7826 14.1644 12.6929 15.4372C11.6032 16.7099 11.0032 18.3272 11 20V32.963C11 33.8871 11.1827 34.8021 11.5377 35.6559C11.8927 36.5097 12.4131 37.2854 13.069 37.9389C14.3938 39.2586 16.1906 40 18.0641 40H32.9359C33.8636 40 34.7822 39.818 35.6392 39.4643C36.4963 39.1107 37.275 38.5923 37.931 37.9389C38.5869 37.2854 39.1073 36.5097 39.4623 35.6559C39.8173 34.8021 40 33.8871 40 32.963V20C39.9968 18.3272 39.3968 16.7099 38.3071 15.4372C37.2174 14.1644 35.709 13.3189 34.0513 13.0519ZM37.7692 21.8519H13.2308V20C13.2322 18.9187 13.6002 17.8695 14.275 17.0225C14.9498 16.1755 15.8919 15.5803 16.9487 15.3333V17.037C16.9487 17.3317 17.0662 17.6143 17.2754 17.8227C17.4846 18.0311 17.7683 18.1481 18.0641 18.1481C18.3599 18.1481 18.6436 18.0311 18.8528 17.8227C19.062 17.6143 19.1795 17.3317 19.1795 17.037V15.1852H31.8205V17.037C31.8205 17.3317 31.938 17.6143 32.1472 17.8227C32.3564 18.0311 32.6401 18.1481 32.9359 18.1481C33.2317 18.1481 33.5154 18.0311 33.7246 17.8227C33.9338 17.6143 34.0513 17.3317 34.0513 17.037V15.3333C35.1081 15.5803 36.0502 16.1755 36.725 17.0225C37.3998 17.8695 37.7678 18.9187 37.7692 20V21.8519Z" fill="#009877"/>
</svg>
