<svg width="50" height="50" viewBox="0 0 50 50" fill="none" xmlns="http://www.w3.org/2000/svg">
<path d="M25.5 11C25.7542 11 25.9979 11.1016 26.1776 11.2824C26.3574 11.4633 26.4583 11.7085 26.4583 11.9643V20.6429H24.5417V11.9643C24.5417 11.7085 24.6426 11.4633 24.8224 11.2824C25.0021 11.1016 25.2458 11 25.5 11ZM25.5 38C25.2458 38 25.0021 37.8984 24.8224 37.7176C24.6426 37.5367 24.5417 37.2915 24.5417 37.0357V28.3571H26.4583V37.0357C26.4583 37.2915 26.3574 37.5367 26.1776 37.7176C25.9979 37.8984 25.7542 38 25.5 38ZM14 22.5714C14 22.0599 14.2019 21.5694 14.5614 21.2077C14.9208 20.846 15.4083 20.6429 15.9167 20.6429H35.0833C35.5917 20.6429 36.0792 20.846 36.4386 21.2077C36.7981 21.5694 37 22.0599 37 22.5714V26.4286C37 26.9401 36.7981 27.4306 36.4386 27.7923C36.0792 28.154 35.5917 28.3571 35.0833 28.3571H15.9167C15.4083 28.3571 14.9208 28.154 14.5614 27.7923C14.2019 27.4306 14 26.9401 14 26.4286V22.5714Z" fill="#08A080"/>
</svg>
