<svg width="50" height="50" viewBox="0 0 50 50" fill="none" xmlns="http://www.w3.org/2000/svg">
<path d="M25.5 10C17.4922 10 11 16.4922 11 24.5C11 32.5078 17.4922 39 25.5 39C33.5078 39 40 32.5078 40 24.5C40 16.4922 33.5078 10 25.5 10ZM32.1923 26.7308H25.5C25.2042 26.7308 24.9205 26.6133 24.7113 26.4041C24.5021 26.1949 24.3846 25.9112 24.3846 25.6154V15.5769C24.3846 15.2811 24.5021 14.9974 24.7113 14.7882C24.9205 14.5791 25.2042 14.4615 25.5 14.4615C25.7958 14.4615 26.0795 14.5791 26.2887 14.7882C26.4979 14.9974 26.6154 15.2811 26.6154 15.5769V24.5H32.1923C32.4881 24.5 32.7718 24.6175 32.981 24.8267C33.1902 25.0359 33.3077 25.3196 33.3077 25.6154C33.3077 25.9112 33.1902 26.1949 32.981 26.4041C32.7718 26.6133 32.4881 26.7308 32.1923 26.7308Z" fill="#009877"/>
</svg>
