<svg width="50" height="50" viewBox="0 0 50 50" fill="none" xmlns="http://www.w3.org/2000/svg">
<path d="M22.5556 16.4444L25 14M20.1111 29.8889L29.8889 20.1111M25 36L27.4444 33.5556M30.5 33.5556C31.3104 33.5556 32.0876 33.2336 32.6606 32.6606C33.2336 32.0876 33.5556 31.3104 33.5556 30.5C33.5556 29.6896 33.2336 28.9124 32.6606 28.3394C32.0876 27.7664 31.3104 27.4444 30.5 27.4444C29.6896 27.4444 28.9124 27.7664 28.3394 28.3394C27.7664 28.9124 27.4444 29.6896 27.4444 30.5C27.4444 31.3104 27.7664 32.0876 28.3394 32.6606C28.9124 33.2336 29.6896 33.5556 30.5 33.5556ZM19.5 22.5556C20.3104 22.5556 21.0876 22.2336 21.6606 21.6606C22.2336 21.0876 22.5556 20.3104 22.5556 19.5C22.5556 18.6896 22.2336 17.9124 21.6606 17.3394C21.0876 16.7664 20.3104 16.4444 19.5 16.4444C18.6896 16.4444 17.9124 16.7664 17.3394 17.3394C16.7664 17.9124 16.4444 18.6896 16.4444 19.5C16.4444 20.3104 16.7664 21.0876 17.3394 21.6606C17.9124 22.2336 18.6896 22.5556 19.5 22.5556ZM17.0556 36C17.8659 36 18.6431 35.6781 19.2162 35.105C19.7892 34.532 20.1111 33.7548 20.1111 32.9444C20.1111 32.1341 19.7892 31.3569 19.2162 30.7838C18.6431 30.2108 17.8659 29.8889 17.0556 29.8889C16.2452 29.8889 15.468 30.2108 14.895 30.7838C14.3219 31.3569 14 32.1341 14 32.9444C14 33.7548 14.3219 34.532 14.895 35.105C15.468 35.6781 16.2452 36 17.0556 36ZM32.9444 20.1111C33.7548 20.1111 34.532 19.7892 35.105 19.2162C35.6781 18.6431 36 17.8659 36 17.0556C36 16.2452 35.6781 15.468 35.105 14.895C34.532 14.3219 33.7548 14 32.9444 14C32.1341 14 31.3569 14.3219 30.7838 14.895C30.2108 15.468 29.8889 16.2452 29.8889 17.0556C29.8889 17.8659 30.2108 18.6431 30.7838 19.2162C31.3569 19.7892 32.1341 20.1111 32.9444 20.1111Z" stroke="#08A080" stroke-width="1.83333" stroke-linecap="round" stroke-linejoin="round"/>
</svg>
