<svg width="24" height="24" viewBox="0 0 24 24" fill="none" xmlns="http://www.w3.org/2000/svg">
<path d="M6.90896 11.6363C8.71644 11.6363 10.1817 10.171 10.1817 8.36355C10.1817 6.55607 8.71644 5.09082 6.90896 5.09082C5.10148 5.09082 3.63623 6.55607 3.63623 8.36355C3.63623 10.171 5.10148 11.6363 6.90896 11.6363Z" fill="#007B89"/>
<path d="M10.6366 13.4545C9.35663 12.8045 7.9439 12.5454 6.90936 12.5454C4.88299 12.5454 0.727539 13.7881 0.727539 16.2727V18.1818H7.54572V17.4513C7.54572 16.5877 7.90936 15.7218 8.54572 15C9.05345 14.4236 9.76436 13.8886 10.6366 13.4545Z" fill="#007B89"/>
<path d="M15.4547 13.0908C13.0879 13.0908 8.36377 14.5526 8.36377 17.4545V19.6363H22.5456V17.4545C22.5456 14.5526 17.8215 13.0908 15.4547 13.0908Z" fill="#007B89"/>
<path d="M15.4546 11.6362C17.6637 11.6362 19.4546 9.84537 19.4546 7.63623C19.4546 5.42709 17.6637 3.63623 15.4546 3.63623C13.2455 3.63623 11.4546 5.42709 11.4546 7.63623C11.4546 9.84537 13.2455 11.6362 15.4546 11.6362Z" fill="#007B89"/>
</svg>
