<svg width="35" height="35" viewBox="0 0 28 28" fill="none" xmlns="http://www.w3.org/2000/svg">
<path d="M10.8366 12.9455H8.72746V15.0546H10.8366V12.9455ZM15.0547 12.9455H12.9456V15.0546H15.0547V12.9455ZM19.2729 12.9455H17.1638V15.0546H19.2729V12.9455ZM21.382 5.56368H20.3275V3.45459H18.2184V5.56368H9.782V3.45459H7.67291V5.56368H6.61837C6.059 5.56368 5.52255 5.78589 5.12702 6.18142C4.73148 6.57695 4.50928 7.11341 4.50928 7.67277V22.4364C4.50928 22.9958 4.73148 23.5322 5.12702 23.9278C5.52255 24.3233 6.059 24.5455 6.61837 24.5455H21.382C21.9414 24.5455 22.4778 24.3233 22.8734 23.9278C23.2689 23.5322 23.4911 22.9958 23.4911 22.4364V7.67277C23.4911 7.11341 23.2689 6.57695 22.8734 6.18142C22.4778 5.78589 21.9414 5.56368 21.382 5.56368ZM21.382 22.4364H6.61837V10.8364H21.382V22.4364Z" fill="#007B89"/>
</svg>
