<svg width="28" height="28" viewBox="0 0 28 28" fill="none" xmlns="http://www.w3.org/2000/svg">
<path d="M19.8006 24.2618H8.20059C5.60454 24.2618 3.5 22.1574 3.5 19.5613V13.1954C3.5 10.5994 5.60454 8.49481 8.20059 8.49481H19.8006C22.3955 8.49481 24.5 10.5994 24.5 13.1954V19.5613C24.5 22.1574 22.3955 24.2618 19.8006 24.2618Z" stroke="#009877" stroke-linecap="round" stroke-linejoin="round"/>
<path fill-rule="evenodd" clip-rule="evenodd" d="M16.5691 17.7107C15.7439 18.4577 14.7132 19.1297 13.5792 19.5872C12.6143 19.9674 11.8061 19.4929 11.687 18.5417C11.5428 17.1387 11.5462 15.7969 11.687 14.5437C11.8163 13.555 12.7074 13.135 13.5792 13.5028C14.6961 13.9602 15.6985 14.5812 16.5691 15.3781C17.3126 16.0535 17.3308 17.0104 16.5691 17.7107Z" stroke="#009877" stroke-linecap="round" stroke-linejoin="round"/>
<path d="M19.3116 3.74152L14.0002 8.49546L8.82288 3.74152" stroke="#009877" stroke-linecap="round" stroke-linejoin="round"/>
</svg>
