<svg width="28" height="28" viewBox="0 0 28 28" fill="none" xmlns="http://www.w3.org/2000/svg">
<path d="M2.33334 16.9167L4.26301 16.2738C5.29405 15.9302 6.23091 15.3512 6.9994 14.5827C7.76788 13.8142 8.34687 12.8774 8.69051 11.8463L9.33334 9.91665C9.33334 9.91665 11.0833 8.74999 14 8.74999C16.9167 8.74999 18.6667 9.91665 18.6667 9.91665L19.3095 11.8463C19.6532 12.8774 20.2321 13.8142 21.0006 14.5827C21.7691 15.3512 22.706 15.9302 23.737 16.2738L25.6667 16.9167M11.0833 12.25V18.0833L6.12501 19.075C5.88322 19.1253 5.66558 19.2559 5.50754 19.4457C5.3495 19.6355 5.26038 19.8732 5.2547 20.1201C5.24902 20.367 5.32711 20.6086 5.47625 20.8054C5.62539 21.0022 5.83679 21.1428 6.07601 21.2042C7.59851 21.5915 10.9737 22.4817 14 23.5258C17.0998 24.5945 19.8333 25.8242 19.8333 26.8333M16.9167 12.25V18.0833L21.875 19.075C22.1168 19.1253 22.3344 19.2559 22.4925 19.4457C22.6505 19.6355 22.7396 19.8732 22.7453 20.1201C22.751 20.367 22.6729 20.6086 22.5238 20.8054C22.3746 21.0022 22.1632 21.1428 21.924 21.2042C20.7877 21.4935 18.6188 22.0628 16.3333 22.7675M11.6667 24.3973C9.64834 25.228 8.16668 26.089 8.16668 26.8333M13.825 6.41665C13.825 6.41665 11.9583 5.24999 11.9583 3.79165C11.9583 3.25079 12.1732 2.73208 12.5557 2.34963C12.9381 1.96718 13.4568 1.75232 13.9977 1.75232C14.5385 1.75232 15.0573 1.96718 15.4397 2.34963C15.8222 2.73208 16.037 3.25079 16.037 3.79165C16.037 5.24999 14.175 6.41665 14.175 6.41665H13.825Z" stroke="#009877"/>
</svg>
