<svg width="26" height="26" viewBox="0 0 26 26" fill="none" xmlns="http://www.w3.org/2000/svg">
<path d="M17.5254 21.3283C17.5254 19.3475 16.1914 16.9683 12.5188 16.3159" stroke="#009877" stroke-width="1.10417" stroke-linecap="round" stroke-linejoin="round"/>
<path fill-rule="evenodd" clip-rule="evenodd" d="M14.9612 8.28858C14.9612 10.794 12.9304 12.8248 10.425 12.8248C7.92062 12.8248 5.88983 10.794 5.88983 8.28858C5.88983 5.78316 7.92062 3.75238 10.425 3.75238C12.9304 3.75238 14.9612 5.78316 14.9612 8.28858Z" stroke="#009877" stroke-width="1.10417" stroke-linecap="round" stroke-linejoin="round"/>
<path d="M18.8649 15.7867C21.8418 16.3979 22.75 18.5526 22.75 20.2064" stroke="#009877" stroke-width="1.10417" stroke-linecap="round" stroke-linejoin="round"/>
<path d="M17.8577 5.5863C19.3886 5.90552 20.5353 7.26428 20.53 8.88871C20.5248 10.3262 19.6186 11.5506 18.3459 12.0263" stroke="#009877" stroke-width="1.10417" stroke-linecap="round" stroke-linejoin="round"/>
<path d="M5.94257 20.9592L5.83778 20.6756C5.4427 19.6063 4.60088 18.7632 3.53312 18.3676L3.25 18.2626L3.53312 18.1578C4.60088 17.762 5.4427 16.919 5.83778 15.8497L5.94257 15.5661L6.04736 15.8497C6.44244 16.919 7.28426 17.762 8.35202 18.1578L8.63522 18.2626L8.35202 18.3676C7.28426 18.7632 6.44244 19.6063 6.04736 20.6756L5.94257 20.9592Z" stroke="#009877" stroke-width="1.10417" stroke-linecap="round" stroke-linejoin="round"/>
<path d="M11.4516 22.2477C11.2735 21.662 10.8158 21.2035 10.231 21.0252C10.8158 20.847 11.2735 20.3885 11.4516 19.8027C11.6296 20.3885 12.0873 20.847 12.6722 21.0252C12.0873 21.2035 11.6296 21.662 11.4516 22.2477Z" stroke="#009877" stroke-width="1.10417" stroke-linecap="round" stroke-linejoin="round"/>
</svg>
