<svg width="28" height="28" viewBox="0 0 28 28" fill="none" xmlns="http://www.w3.org/2000/svg">
<path d="M2.33337 16.9167L4.26304 16.2738C5.29408 15.9302 6.23094 15.3512 6.99943 14.5827C7.76791 13.8142 8.3469 12.8774 8.69054 11.8463L9.33337 9.91665C9.33337 9.91665 11.0834 8.74999 14 8.74999C16.9167 8.74999 18.6667 9.91665 18.6667 9.91665L19.3095 11.8463C19.6532 12.8774 20.2322 13.8142 21.0007 14.5827C21.7691 15.3512 22.706 15.9302 23.737 16.2738L25.6667 16.9167M11.0834 12.25V18.0833L6.12504 19.075C5.88325 19.1253 5.66561 19.2559 5.50757 19.4457C5.34953 19.6355 5.26041 19.8732 5.25473 20.1201C5.24905 20.367 5.32714 20.6086 5.47628 20.8054C5.62542 21.0022 5.83682 21.1428 6.07604 21.2042C7.59854 21.5915 10.9737 22.4817 14 23.5258C17.0999 24.5945 19.8334 25.8242 19.8334 26.8333M16.9167 12.25V18.0833L21.875 19.075C22.1168 19.1253 22.3345 19.2559 22.4925 19.4457C22.6505 19.6355 22.7397 19.8732 22.7454 20.1201C22.751 20.367 22.6729 20.6086 22.5238 20.8054C22.3747 21.0022 22.1633 21.1428 21.924 21.2042C20.7877 21.4935 18.6189 22.0628 16.3334 22.7675M11.6667 24.3973C9.64837 25.228 8.16671 26.089 8.16671 26.8333M13.825 6.41665C13.825 6.41665 11.9584 5.24999 11.9584 3.79165C11.9584 3.25079 12.1732 2.73208 12.5557 2.34963C12.9381 1.96718 13.4568 1.75232 13.9977 1.75232C14.5386 1.75232 15.0573 1.96718 15.4397 2.34963C15.8222 2.73208 16.037 3.25079 16.037 3.79165C16.037 5.24999 14.175 6.41665 14.175 6.41665H13.825Z" stroke="#009877"/>
</svg>
