<svg width="28" height="28" viewBox="0 0 28 28" fill="none" xmlns="http://www.w3.org/2000/svg">
<path d="M10.5 11.6667C10.5 16.177 14 19.8333 14 19.8333C14 19.8333 17.5 16.177 17.5 11.6667C17.5 7.15633 14 3.5 14 3.5C14 3.5 10.5 7.15633 10.5 11.6667Z" stroke="#009877" stroke-linejoin="round"/>
<path d="M7.38498 9.33335C4.80081 8.22035 2.33331 8.16669 2.33331 8.16669C2.33331 8.16669 2.44531 13.2779 5.66648 16.5002C8.88765 19.7225 14 19.8334 14 19.8334C14 19.8334 19.1111 19.7214 22.3335 16.5002C25.5558 13.279 25.6666 8.16669 25.6666 8.16669C25.6666 8.16669 23.2003 8.22035 20.615 9.33335M14.0233 19.8334C13.8296 21.3885 14.77 24.5 18.0996 24.5C20.4271 24.5 21.5915 22.1667 25.6666 24.5C25.2 22.1667 24.2666 20.6734 22.9051 19.8334M13.9755 19.8334C14.1703 21.3885 13.2288 24.5 9.90148 24.5C7.57165 24.5 6.40848 22.1667 2.33331 24.5C2.79998 22.1667 3.73331 20.6734 5.09481 19.8334" stroke="#009877" stroke-linecap="round" stroke-linejoin="round"/>
</svg>
