<svg width="21" height="21" viewBox="0 0 21 21" fill="none" xmlns="http://www.w3.org/2000/svg">
<path d="M17.7255 1.70187L17.8155 1.69678L17.9258 1.70357L18.0021 1.71714L18.1065 1.74684L18.1973 1.78587L18.2821 1.83423L18.3585 1.89108L18.4281 1.95472L18.4722 2.00478L18.5418 2.1032L18.5859 2.18466C18.6255 2.2695 18.6509 2.35888 18.6623 2.45278L18.6665 2.54272C18.6665 2.60664 18.6597 2.66886 18.6461 2.72938L18.6164 2.83375L13.0741 18.1718C12.9691 18.4005 12.8006 18.5943 12.5887 18.7301C12.3768 18.8659 12.1303 18.9381 11.8786 18.938C11.652 18.9385 11.4291 18.8804 11.2315 18.7693C11.0339 18.6583 10.8684 18.498 10.751 18.3042L10.6958 18.1964L7.85172 12.5099L2.19232 9.67932C1.98292 9.58355 1.80233 9.43448 1.66862 9.24701C1.5349 9.05955 1.45275 8.84026 1.43038 8.61108L1.42529 8.48466C1.42529 8.0095 1.68069 7.57508 2.13887 7.32223L2.25766 7.26284L17.5448 1.7426L17.6347 1.71714L17.7255 1.70187Z" fill="#007B89"/>
</svg>
