<svg width="24" height="24" viewBox="0 0 24 24" fill="none" xmlns="http://www.w3.org/2000/svg">
<path d="M12 0C18.6276 0 24 5.3724 24 12C24 18.6276 18.6276 24 12 24C5.3724 24 0 18.6276 0 12C0 5.3724 5.3724 0 12 0ZM9.0276 13.2C9.1356 15.5784 9.5532 17.6712 10.1484 19.2024C10.4964 20.0976 10.8828 20.7408 11.2488 21.1392C11.6136 21.5364 11.8692 21.6 12 21.6C12.1308 21.6 12.3864 21.5364 12.7512 21.1392C13.1172 20.7408 13.5036 20.0976 13.8516 19.2024C14.4468 17.6712 14.8656 15.5784 14.9724 13.2H9.0276ZM2.4768 13.2C2.68633 14.8645 3.32839 16.4451 4.33902 17.7841C5.34965 19.1232 6.69354 20.1741 8.2368 20.832C8.11971 20.5826 8.01125 20.3293 7.9116 20.0724C7.1928 18.2244 6.732 15.8268 6.624 13.2H2.4768ZM17.376 13.2C17.268 15.8268 16.8072 18.2244 16.0884 20.0724C15.9868 20.3348 15.8784 20.588 15.7632 20.832C17.3065 20.1741 18.6504 19.1232 19.661 17.7841C20.6716 16.4451 21.3137 14.8645 21.5232 13.2H17.376ZM15.7632 3.1668C15.8784 3.4116 15.9868 3.6652 16.0884 3.9276C16.8072 5.7756 17.2668 8.1732 17.376 10.8H21.5232C21.3139 9.13527 20.6719 7.55448 19.6613 6.21518C18.6506 4.87587 17.3066 3.82483 15.7632 3.1668ZM12 2.4C11.8692 2.4 11.6136 2.4636 11.2488 2.8608C10.8828 3.2592 10.4964 3.9024 10.1484 4.7976C9.5532 6.3288 9.1356 8.4216 9.0276 10.8H14.9724C14.8644 8.4216 14.4468 6.3288 13.8516 4.7976C13.5036 3.9024 13.1172 3.2592 12.7512 2.8608C12.3864 2.4636 12.1308 2.4 12 2.4ZM8.2356 3.1668C6.69241 3.82499 5.34865 4.87611 4.33823 6.2154C3.32781 7.5547 2.68602 9.1354 2.4768 10.8H6.6252C6.7332 8.1732 7.1928 5.7756 7.9116 3.9276C8.0132 3.6652 8.1212 3.4116 8.2356 3.1668Z" fill="#009877"/>
</svg>
