<svg width="19" height="23" viewBox="0 0 19 23" fill="none" xmlns="http://www.w3.org/2000/svg">
<path d="M5.66516 21.7137V7.74267C4.08425 7.32363 2.794 6.48556 1.7944 5.22845C0.79481 3.97133 0.199396 2.5428 0.00816306 0.942839C-0.0299312 0.676179 0.0653045 0.452565 0.29387 0.271998C0.522436 0.0914315 0.789096 0.000767201 1.09385 5.31548e-06C1.3986 -0.00075657 1.66526 0.0803843 1.89383 0.243428C2.1224 0.406471 2.25573 0.630085 2.29382 0.914268C2.50334 2.28566 3.0938 3.42849 4.0652 4.34275C5.03661 5.25702 6.23658 5.71415 7.66511 5.71415H10.5222C11.0936 5.71415 11.6269 5.81891 12.1221 6.02843C12.6174 6.23795 13.065 6.5427 13.465 6.94269L17.8363 11.314C18.0458 11.5235 18.1506 11.7902 18.1506 12.114C18.1506 12.4378 18.0458 12.7044 17.8363 12.914C17.6268 13.1235 17.3601 13.2282 17.0363 13.2282C16.7125 13.2282 16.4458 13.1235 16.2363 12.914L12.5221 9.19978V21.7137C12.5221 22.0375 12.4124 22.3092 12.193 22.5286C11.9736 22.748 11.7023 22.8573 11.3793 22.8566C11.0563 22.8558 10.785 22.7461 10.5656 22.5274C10.3462 22.3088 10.2365 22.0375 10.2365 21.7137V15.9996H7.95082V21.7137C7.95082 22.0375 7.84111 22.3092 7.62169 22.5286C7.40226 22.748 7.13103 22.8573 6.80799 22.8566C6.48495 22.8558 6.21372 22.7461 5.9943 22.5274C5.77488 22.3088 5.66516 22.0375 5.66516 21.7137ZM7.47998 3.90048C7.03199 3.45249 6.80799 2.91422 6.80799 2.28566C6.80799 1.65711 7.03199 1.11922 7.47998 0.671989C7.92796 0.224762 8.46586 0.000767201 9.09365 5.31548e-06C9.72144 -0.00075657 10.2597 0.223238 10.7085 0.671989C11.1572 1.12074 11.3808 1.65863 11.3793 2.28566C11.3778 2.91269 11.1542 3.45097 10.7085 3.90048C10.2628 4.34999 9.72449 4.57361 9.09365 4.57132C8.46281 4.56903 7.92492 4.34542 7.47998 3.90048Z" fill="#007B89"/>
</svg>
