<svg width="24" height="24" viewBox="0 0 24 24" fill="none" xmlns="http://www.w3.org/2000/svg">
<path d="M4 20H8L9.5 17M17 20L16 15H11L12 8" stroke="#007B89" stroke-width="2.50313" stroke-linecap="round" stroke-linejoin="round"/>
<path d="M4 10L8 9L12 8L16 9.5L20 11M10.007 5C10.007 5.53043 10.2177 6.03914 10.5928 6.41421C10.9679 6.78929 11.4766 7 12.007 7C12.5374 7 13.0461 6.78929 13.4212 6.41421C13.7963 6.03914 14.007 5.53043 14.007 5C14.007 4.46957 13.7963 3.96086 13.4212 3.58579C13.0461 3.21071 12.5374 3 12.007 3C11.4766 3 10.9679 3.21071 10.5928 3.58579C10.2177 3.96086 10.007 4.46957 10.007 5Z" stroke="#007B89" stroke-width="2.50313" stroke-linecap="round" stroke-linejoin="round"/>
</svg>
