<svg width="27" height="27" viewBox="0 0 27 27" fill="none" xmlns="http://www.w3.org/2000/svg">
<path d="M9.81787 10.9093C9.81787 15.1268 13.0906 18.5457 13.0906 18.5457C13.0906 18.5457 16.3633 15.1268 16.3633 10.9093C16.3633 6.69186 13.0906 3.27295 13.0906 3.27295C13.0906 3.27295 9.81787 6.69186 9.81787 10.9093Z" stroke="#007B89" stroke-width="2.04802" stroke-linejoin="round"/>
<path d="M6.90528 8.72763C4.48891 7.6869 2.18164 7.63672 2.18164 7.63672C2.18164 7.63672 2.28637 12.416 5.29837 15.4291C8.31037 18.4422 13.0907 18.5458 13.0907 18.5458C13.0907 18.5458 17.87 18.4411 20.8831 15.4291C23.8962 12.4171 23.9998 7.63672 23.9998 7.63672C23.9998 7.63672 21.6936 7.6869 19.2762 8.72763M13.1126 18.5458C12.9315 20 13.8107 22.9094 16.9242 22.9094C19.1006 22.9094 20.1893 20.7276 23.9998 22.9094C23.5635 20.7276 22.6907 19.3313 21.4176 18.5458M13.0678 18.5458C13.25 20 12.3696 22.9094 9.25837 22.9094C7.07982 22.9094 5.99219 20.7276 2.18164 22.9094C2.618 20.7276 3.49073 19.3313 4.76382 18.5458" stroke="#007B89" stroke-width="2.04802" stroke-linecap="round" stroke-linejoin="round"/>
</svg>
