<svg preserveAspectRatio="none" width="100%" height="100%" overflow="visible" style="display: block;" viewBox="0 0 20 20" fill="none" xmlns="http://www.w3.org/2000/svg">
<g id="boxicons:leaf-filled">
<path id="Vector" d="M17.7755 2.10854C17.4671 1.99187 17.1171 2.06687 16.8838 2.29187C16.8255 2.3502 15.3338 3.76687 12.8505 2.51687C11.1421 1.65854 8.18379 1.1502 5.45045 2.51687C1.90045 4.3002 0.64212 8.74187 2.52545 12.6835C3.04212 11.2335 3.78379 10.0085 4.75879 9.03354C7.10045 6.7002 9.92545 6.7002 10.0005 6.6752V6.95854C8.64983 7.33044 7.41831 8.04524 6.42545 9.03354C4.37545 11.0835 3.33379 14.2085 3.33379 18.3335H5.00045C5.00045 17.3752 5.05879 16.5169 5.17545 15.7335C5.72545 16.0752 6.33379 16.3335 6.98379 16.4835C7.53379 16.6169 8.08379 16.6669 8.62545 16.6669C10.6505 16.6669 12.4921 15.8669 13.3921 15.1919C14.9088 14.0502 16.1588 12.9669 17.3921 10.2835C18.5588 7.7252 18.3255 3.03354 18.3088 2.83354C18.2996 2.67402 18.2444 2.5206 18.1497 2.3919C18.055 2.2632 17.925 2.16476 17.7755 2.10854Z" fill="var(--fill-0, #00785D)"/>
</g>
</svg>
