<svg preserveAspectRatio="none" width="100%" height="100%" overflow="visible" style="display: block;" viewBox="0 0 25 25" fill="none" xmlns="http://www.w3.org/2000/svg">
<g id="bi:align-center">
<path id="Vector" d="M12.5 1.5625C12.7072 1.5625 12.9059 1.64481 13.0524 1.79132C13.1989 1.93784 13.2812 2.13655 13.2812 2.34375V9.375H11.7188V2.34375C11.7188 2.13655 11.8011 1.93784 11.9476 1.79132C12.0941 1.64481 12.2928 1.5625 12.5 1.5625ZM12.5 23.4375C12.2928 23.4375 12.0941 23.3552 11.9476 23.2087C11.8011 23.0622 11.7188 22.8635 11.7188 22.6562V15.625H13.2812V22.6562C13.2812 22.8635 13.1989 23.0622 13.0524 23.2087C12.9059 23.3552 12.7072 23.4375 12.5 23.4375ZM3.125 10.9375C3.125 10.5231 3.28962 10.1257 3.58265 9.83265C3.87567 9.53962 4.2731 9.375 4.6875 9.375H20.3125C20.7269 9.375 21.1243 9.53962 21.4174 9.83265C21.7104 10.1257 21.875 10.5231 21.875 10.9375V14.0625C21.875 14.4769 21.7104 14.8743 21.4174 15.1674C21.1243 15.4604 20.7269 15.625 20.3125 15.625H4.6875C4.2731 15.625 3.87567 15.4604 3.58265 15.1674C3.28962 14.8743 3.125 14.4769 3.125 14.0625V10.9375Z" fill="var(--fill-0, #00785D)"/>
</g>
</svg>
