<svg preserveAspectRatio="none" width="100%" height="100%" overflow="visible" style="display: block;" viewBox="0 0 22 22" fill="none" xmlns="http://www.w3.org/2000/svg">
<g id="grommet-icons:technology">
<path id="Vector" d="M9.16667 4.58333L11 2.75M7.33333 14.6667L14.6667 7.33333M11 19.25L12.8333 17.4167M15.125 17.4167C15.7328 17.4167 16.3157 17.1752 16.7455 16.7455C17.1752 16.3157 17.4167 15.7328 17.4167 15.125C17.4167 14.5172 17.1752 13.9343 16.7455 13.5045C16.3157 13.0748 15.7328 12.8333 15.125 12.8333C14.5172 12.8333 13.9343 13.0748 13.5045 13.5045C13.0748 13.9343 12.8333 14.5172 12.8333 15.125C12.8333 15.7328 13.0748 16.3157 13.5045 16.7455C13.9343 17.1752 14.5172 17.4167 15.125 17.4167ZM6.875 9.16667C7.48279 9.16667 8.06568 8.92522 8.49545 8.49545C8.92522 8.06568 9.16667 7.48279 9.16667 6.875C9.16667 6.26721 8.92522 5.68432 8.49545 5.25455C8.06568 4.82478 7.48279 4.58333 6.875 4.58333C6.26721 4.58333 5.68432 4.82478 5.25455 5.25455C4.82478 5.68432 4.58333 6.26721 4.58333 6.875C4.58333 7.48279 4.82478 8.06568 5.25455 8.49545C5.68432 8.92522 6.26721 9.16667 6.875 9.16667ZM5.04167 19.25C5.64945 19.25 6.23235 19.0086 6.66212 18.5788C7.09189 18.149 7.33333 17.5661 7.33333 16.9583C7.33333 16.3505 7.09189 15.7677 6.66212 15.3379C6.23235 14.9081 5.64945 14.6667 5.04167 14.6667C4.43388 14.6667 3.85098 14.9081 3.42121 15.3379C2.99144 15.7677 2.75 16.3505 2.75 16.9583C2.75 17.5661 2.99144 18.149 3.42121 18.5788C3.85098 19.0086 4.43388 19.25 5.04167 19.25ZM16.9583 7.33333C17.5661 7.33333 18.149 7.09189 18.5788 6.66212C19.0086 6.23235 19.25 5.64945 19.25 5.04167C19.25 4.43388 19.0086 3.85098 18.5788 3.42121C18.149 2.99144 17.5661 2.75 16.9583 2.75C16.3505 2.75 15.7677 2.99144 15.3379 3.42121C14.9081 3.85098 14.6667 4.43388 14.6667 5.04167C14.6667 5.64945 14.9081 6.23235 15.3379 6.66212C15.7677 7.09189 16.3505 7.33333 16.9583 7.33333Z" stroke="var(--stroke-0, #00785D)" stroke-width="1.83333" stroke-linecap="round" stroke-linejoin="round"/>
</g>
</svg>
