<svg preserveAspectRatio="none" width="100%" height="100%" overflow="visible" style="display: block;" viewBox="0 0 52 52" fill="none" xmlns="http://www.w3.org/2000/svg">
<g id="Group 1171281779">
<rect id="Rectangle 161124047" width="52" height="52" rx="17" fill="var(--fill-0, #E4FFF9)"/>
<path id="Vector" d="M26 16C25.4696 16 24.9609 16.2107 24.5858 16.5858C24.2107 16.9609 24 17.4696 24 18C24 18.5304 24.2107 19.0391 24.5858 19.4142C24.9609 19.7893 25.4696 20 26 20C27.11 20 28 19.11 28 18C28 17.4696 27.7893 16.9609 27.4142 16.5858C27.0391 16.2107 26.5304 16 26 16ZM17 21V23H23V29L17.93 34.07L19.34 35.5L26.06 28.77L30 31.13V35H32V30.57C32 30.21 31.82 29.89 31.5 29.71L28 27.6V23H34V21H17Z" fill="var(--fill-0, #00785D)"/>
</g>
</svg>
