<svg preserveAspectRatio="none" width="100%" height="100%" overflow="visible" style="display: block;" viewBox="0 0 44 44" fill="none" xmlns="http://www.w3.org/2000/svg">
<g id="Group 1171281692">
<path id="Rectangle 161124024" d="M0 22C0 9.84974 9.84974 0 22 0V0C34.1503 0 44 9.84974 44 22V22C44 34.1503 34.1503 44 22 44V44C9.84974 44 0 34.1503 0 22V22Z" fill="var(--fill-0, white)" fill-opacity="0.14"/>
<path id="Vector" d="M25.9749 26.9251C24.2895 28.369 22.1103 29.1041 19.8946 28.976C17.6789 28.848 15.599 27.8667 14.0912 26.2381C12.5834 24.6096 11.765 22.4603 11.8077 20.2413C11.8505 18.0224 12.751 15.9062 14.3203 14.3368C15.8896 12.7675 18.0058 11.867 20.2248 11.8243C22.4438 11.7816 24.593 12.6 26.2216 14.1077C27.8502 15.6155 28.8314 17.6955 28.9595 19.9112C29.0876 22.1268 28.3525 24.306 26.9085 25.9914L31.4197 30.5052C31.5338 30.6221 31.6004 30.7772 31.6068 30.9405C31.6132 31.1038 31.5588 31.2636 31.4541 31.3891C31.3495 31.5146 31.2021 31.5968 31.0403 31.6199C30.8786 31.643 30.714 31.6053 30.5784 31.5141L30.486 31.4388L25.9749 26.9251ZM25.0373 25.9874C25.3762 25.7057 25.6874 25.3949 25.9709 25.0551C27.167 23.6188 27.7633 21.7766 27.6358 19.9119C27.5083 18.0471 26.6668 16.3032 25.2864 15.0431C23.9059 13.7829 22.0928 13.1034 20.2242 13.1459C18.3555 13.1885 16.5752 13.9497 15.2536 15.2714C13.9319 16.5931 13.1706 18.3734 13.1281 20.242C13.0856 22.1107 13.765 23.9238 15.0252 25.3042C16.2854 26.6846 18.0292 27.5261 19.894 27.6536C21.7588 27.7811 23.6009 27.1848 25.0373 25.9888" fill="var(--fill-0, black)"/>
</g>
</svg>
