<svg preserveAspectRatio="none" width="100%" height="100%" overflow="visible" style="display: block;" viewBox="0 0 26 26" fill="none" xmlns="http://www.w3.org/2000/svg">
<g id="healthicons:people">
<path id="Vector" d="M9.20768 13C11.3023 13 12.9993 11.3029 12.9993 9.20829C12.9993 7.11367 11.3023 5.41663 9.20768 5.41663C7.11306 5.41663 5.41602 7.11367 5.41602 9.20829C5.41602 11.3029 7.11306 13 9.20768 13ZM21.1243 11.1041C21.1243 12.7503 19.7913 14.0833 18.1452 14.0833C17.3551 14.0833 16.5973 13.7694 16.0386 13.2107C15.4799 12.652 15.166 11.8943 15.166 11.1041C15.166 9.458 16.4991 8.12496 18.1452 8.12496C19.7913 8.12496 21.1243 9.458 21.1243 11.1041ZM9.20768 14.0833C10.6886 14.0833 13.0985 14.5443 14.6791 15.4618C15.3247 16.1189 15.7077 16.8355 15.7077 17.55V20.5833H2.16602V17.55C2.16602 15.2446 6.85739 14.0833 9.20768 14.0833ZM23.8327 20.5833H16.791V17.55C16.791 16.783 16.5142 16.0766 16.0738 15.4467C16.9086 15.2603 17.7303 15.1666 18.3581 15.1666C20.3768 15.1666 23.8327 16.1346 23.8327 18.0553V20.5833Z" fill="var(--fill-0, #00785D)"/>
</g>
</svg>
