<svg preserveAspectRatio="none" width="100%" height="100%" overflow="visible" style="display: block;" viewBox="0 0 24.75 25.7019" fill="none" xmlns="http://www.w3.org/2000/svg">
<path id="Vector" d="M19.6731 2.61462V0.951923C19.6731 0.699457 19.5728 0.457332 19.3943 0.278812C19.2157 0.100291 18.9736 0 18.7212 0C18.4687 0 18.2266 0.100291 18.048 0.278812C17.8695 0.457332 17.7692 0.699457 17.7692 0.951923V2.53846H6.98077V0.951923C6.98077 0.699457 6.88048 0.457332 6.70196 0.278812C6.52344 0.100291 6.28131 0 6.02885 0C5.77638 0 5.53425 0.100291 5.35573 0.278812C5.17721 0.457332 5.07692 0.699457 5.07692 0.951923V2.61462C3.66215 2.84344 2.37478 3.56775 1.44478 4.65818C0.514772 5.74862 0.00269092 7.13415 0 8.56731V19.6731C0 20.4648 0.155941 21.2488 0.458919 21.9802C0.761897 22.7117 1.20598 23.3763 1.76581 23.9361C2.89644 25.0667 4.4299 25.7019 6.02885 25.7019H18.7212C19.5129 25.7019 20.2968 25.546 21.0283 25.243C21.7597 24.94 22.4244 24.4959 22.9842 23.9361C23.544 23.3763 23.9881 22.7117 24.2911 21.9802C24.5941 21.2488 24.75 20.4648 24.75 19.6731V8.56731C24.7473 7.13415 24.2352 5.74862 23.3052 4.65818C22.3752 3.56775 21.0879 2.84344 19.6731 2.61462ZM22.8462 10.1538H1.90385V8.56731C1.90509 7.6409 2.21911 6.74205 2.79502 6.0164C3.37094 5.29075 4.175 4.78082 5.07692 4.56923V6.02885C5.07692 6.28131 5.17721 6.52344 5.35573 6.70196C5.53425 6.88048 5.77638 6.98077 6.02885 6.98077C6.28131 6.98077 6.52344 6.88048 6.70196 6.70196C6.88048 6.52344 6.98077 6.28131 6.98077 6.02885V4.44231H17.7692V6.02885C17.7692 6.28131 17.8695 6.52344 18.048 6.70196C18.2266 6.88048 18.4687 6.98077 18.7212 6.98077C18.9736 6.98077 19.2157 6.88048 19.3943 6.70196C19.5728 6.52344 19.6731 6.28131 19.6731 6.02885V4.56923C20.575 4.78082 21.3791 5.29075 21.955 6.0164C22.5309 6.74205 22.8449 7.6409 22.8462 8.56731V10.1538Z" fill="var(--fill-0, #009877)"/>
</svg>
