<svg preserveAspectRatio="none" width="100%" height="100%" overflow="visible" style="display: block;" viewBox="0 0 23 26.3824" fill="none" xmlns="http://www.w3.org/2000/svg">
<path id="Vector" d="M12.1765 0C11.4588 0 10.7706 0.285083 10.2631 0.792534C9.75567 1.29999 9.47059 1.98824 9.47059 2.70588C9.47059 3.42353 9.75567 4.11178 10.2631 4.61923C10.7706 5.12668 11.4588 5.41176 12.1765 5.41176C13.6782 5.41176 14.8824 4.20765 14.8824 2.70588C14.8824 1.98824 14.5973 1.29999 14.0898 0.792534C13.5824 0.285083 12.8941 0 12.1765 0ZM0 6.76471V9.47059H8.11765V17.5882L1.25824 24.4476L3.16588 26.3824L12.2576 17.2771L17.5882 20.47V25.7059H20.2941V19.7124C20.2941 19.2253 20.0506 18.7924 19.6176 18.5488L14.8824 15.6941V9.47059H23V6.76471H0Z" fill="var(--fill-0, #009877)"/>
</svg>
